<svg id="SvgjsSvg1075" width="288" height="288" xmlns="http://www.w3.org/2000/svg" version="1.1" xmlns:xlink="http://www.w3.org/1999/xlink" xmlns:svgjs="http://svgjs.com/svgjs"><defs id="SvgjsDefs1076"></defs><g id="SvgjsG1077"><svg xmlns="http://www.w3.org/2000/svg" fill-rule="evenodd" stroke-linejoin="round" stroke-miterlimit="2" clip-rule="evenodd" viewBox="0 0 512 512" width="288" height="288"><path d="M1942,2821C1806.78,2821 1697,2930.78 1697,3066C1697,3201.22 1806.78,3311 1942,3311C2077.22,3311 2187,3201.22 2187,3066C2187,2930.78 2077.22,2821 1942,2821ZM1942,2831C2071.7,2831 2177,2936.3 2177,3066C2177,3195.7 2071.7,3301 1942,3301C1812.3,3301 1707,3195.7 1707,3066C1707,2936.3 1812.3,2831 1942,2831ZM1942,2846C1820.58,2846 1722,2944.58 1722,3066C1722,3187.42 1820.58,3286 1942,3286C2063.42,3286 2162,3187.42 2162,3066C2162,2944.58 2063.42,2846 1942,2846ZM1942,2856C2057.9,2856 2152,2950.1 2152,3066C2152,3181.9 2057.9,3276 1942,3276C1826.1,3276 1732,3181.9 1732,3066C1732,2950.1 1826.1,2856 1942,2856ZM2059,3172.75C2059,3163.51 2051.49,3156 2042.25,3156L1841.75,3156C1832.51,3156 1825,3163.51 1825,3172.75C1825,3172.75 1825,3196.25 1825,3196.25C1825,3205.49 1832.51,3213 1841.75,3213C1841.75,3213 2042.25,3213 2042.25,3213C2051.49,3213 2059,3205.49 2059,3196.25L2059,3172.75ZM2049,3172.75L2049,3196.25C2049,3199.97 2045.98,3203 2042.25,3203L1841.75,3203C1838.03,3203 1835,3199.97 1835,3196.25L1835,3172.75C1835,3169.03 1838.03,3166 1841.75,3166C1841.75,3166 2042.25,3166 2042.25,3166C2045.98,3166 2049,3169.03 2049,3172.75ZM2037.02,3190L2017,3190C2014.24,3190 2012,3192.24 2012,3195C2012,3197.76 2014.24,3200 2017,3200L2037.02,3200C2039.78,3200 2042.02,3197.76 2042.02,3195C2042.02,3192.24 2039.78,3190 2037.02,3190ZM2001.51,3190L1981.49,3190C1978.73,3190 1976.49,3192.24 1976.49,3195C1976.49,3197.76 1978.73,3200 1981.49,3200L2001.51,3200C2004.27,3200 2006.51,3197.76 2006.51,3195C2006.51,3192.24 2004.27,3190 2001.51,3190ZM1906,3112L1978.24,3112C1980.99,3112 1983.24,3109.76 1983.24,3107C1983.24,3104.24 1980.99,3102 1978.24,3102L1906,3102C1903.24,3102 1901,3104.24 1901,3107C1901,3109.76 1903.24,3112 1906,3112ZM1998.34,2949.94C1981.31,2941.65 1962.19,2937 1942,2937C1870.8,2937 1813,2994.8 1813,3066C1813,3068.76 1815.24,3071 1818,3071C1820.76,3071 1823,3068.76 1823,3066C1823,3000.32 1876.32,2947 1942,2947C1959.99,2947 1977.05,2951 1992.34,2958.16L1934,3038.12C1921.88,3041.6 1913,3052.77 1913,3066C1913,3082.01 1925.99,3095 1942,3095C1958.01,3095 1971,3082.01 1971,3066C1971,3063.58 1970.7,3061.24 1970.15,3058.99L2010.21,2968.51C2040.91,2990.04 2061,3025.69 2061,3066C2061,3068.76 2063.24,3071 2066,3071C2068.76,3071 2071,3068.76 2071,3066C2071,3021.6 2048.52,2982.41 2014.34,2959.2L2030.57,2922.53C2031.61,2920.2 2030.71,2917.45 2028.5,2916.18C2026.29,2914.9 2023.47,2915.5 2021.96,2917.56L1998.34,2949.94ZM1942,3047C1952.49,3047 1961,3055.51 1961,3066C1961,3076.49 1952.49,3085 1942,3085C1931.51,3085 1923,3076.49 1923,3066C1923,3055.51 1931.51,3047 1942,3047ZM1802,3061L1761,3061C1758.24,3061 1756,3063.24 1756,3066C1756,3068.76 1758.24,3071 1761,3071L1802,3071C1804.76,3071 1807,3068.76 1807,3066C1807,3063.24 1804.76,3061 1802,3061ZM2082,3071L2123,3071C2125.76,3071 2128,3068.76 2128,3066C2128,3063.24 2125.76,3061 2123,3061L2082,3061C2079.24,3061 2077,3063.24 2077,3066C2077,3068.76 2079.24,3071 2082,3071ZM1946.89,3037.41C1953.86,3038.6 1959.98,3042.27 1964.31,3047.48L2002.53,2961.15L1946.89,3037.41ZM2078.52,3034.6L2090.13,3031.49C2092.79,3030.77 2094.38,3028.03 2093.66,3025.36C2092.95,3022.7 2090.2,3021.11 2087.54,3021.83L2075.94,3024.94C2073.27,3025.65 2071.69,3028.39 2072.4,3031.06C2073.11,3033.72 2075.86,3035.31 2078.52,3034.6ZM1808.06,3024.94L1796.46,3021.83C1793.8,3021.11 1791.05,3022.7 1790.34,3025.36C1789.62,3028.03 1791.21,3030.77 1793.87,3031.49L1805.48,3034.6C1808.14,3035.31 1810.89,3033.72 1811.6,3031.06C1812.31,3028.39 1810.73,3025.65 1808.06,3024.94ZM2065.74,3000.33L2101.25,2979.83C2103.64,2978.45 2104.46,2975.39 2103.08,2973C2101.7,2970.61 2098.64,2969.79 2096.25,2971.17L2060.74,2991.67C2058.35,2993.05 2057.53,2996.11 2058.91,2998.5C2060.29,3000.89 2063.35,3001.71 2065.74,3000.33ZM1823.26,2991.67L1787.75,2971.17C1785.36,2969.79 1782.3,2970.61 1780.92,2973C1779.54,2975.39 1780.36,2978.45 1782.75,2979.83L1818.26,3000.33C1820.65,3001.71 1823.71,3000.89 1825.09,2998.5C1826.47,2996.11 1825.65,2993.05 1823.26,2991.67ZM1846.54,2963.47L1838.05,2954.98C1836.1,2953.02 1832.93,2953.02 1830.98,2954.98C1829.02,2956.93 1829.02,2960.1 1830.98,2962.05L1839.47,2970.54C1841.42,2972.49 1844.59,2972.49 1846.54,2970.54C1848.49,2968.59 1848.49,2965.42 1846.54,2963.47ZM2044.53,2970.54L2053.02,2962.05C2054.98,2960.1 2054.98,2956.93 2053.02,2954.98C2051.07,2953.02 2047.9,2953.02 2045.95,2954.98L2037.46,2963.47C2035.51,2965.42 2035.51,2968.59 2037.46,2970.54C2039.41,2972.49 2042.58,2972.49 2044.53,2970.54ZM1876.33,2942.26L1855.83,2906.75C1854.45,2904.36 1851.39,2903.54 1849,2904.92C1846.61,2906.3 1845.79,2909.36 1847.17,2911.75L1867.67,2947.26C1869.05,2949.65 1872.11,2950.47 1874.5,2949.09C1876.89,2947.71 1877.71,2944.65 1876.33,2942.26ZM1910.6,2929.48L1907.49,2917.87C1906.77,2915.21 1904.03,2913.62 1901.36,2914.34C1898.7,2915.05 1897.11,2917.8 1897.83,2920.46L1900.94,2932.06C1901.65,2934.73 1904.39,2936.31 1907.06,2935.6C1909.73,2934.89 1911.31,2932.14 1910.6,2929.48ZM1983.06,2932.06L1986.17,2920.46C1986.89,2917.8 1985.3,2915.05 1982.64,2914.34C1979.97,2913.62 1977.23,2915.21 1976.51,2917.87L1973.4,2929.48C1972.69,2932.14 1974.28,2934.89 1976.94,2935.6C1979.61,2936.31 1982.35,2934.73 1983.06,2932.06ZM1947,2926L1947,2885C1947,2882.24 1944.76,2880 1942,2880C1939.24,2880 1937,2882.24 1937,2885L1937,2926C1937,2928.76 1939.24,2931 1942,2931C1944.76,2931 1947,2928.76 1947,2926Z" transform="translate(-1686 -2810)" fill="#39bdc8" class="color000 svgShape"></path></svg></g></svg>